<?xml version="1.0" encoding="UTF-8" standalone="no"?>
<!DOCTYPE svg PUBLIC "-//W3C//DTD SVG 1.1//EN" "http://www.w3.org/Graphics/SVG/1.1/DTD/svg11.dtd">
<svg width="100%" height="100%" viewBox="0 0 2384 2384" version="1.1" xmlns="http://www.w3.org/2000/svg" xmlns:xlink="http://www.w3.org/1999/xlink" xml:space="preserve" xmlns:serif="http://www.serif.com/" style="fill-rule:evenodd;clip-rule:evenodd;stroke-linecap:round;stroke-linejoin:round;stroke-miterlimit:1.5;">
    <g transform="matrix(1,0,0,1,-387.26,-58.4002)">
        <path d="M1389.8,1994.16L1389.8,1457.48L1768.11,1457.48L1767.76,1994.16C1885.48,1964.32 1992.39,1907.25 2081.4,1830.05L2374.13,2122.78C2164.18,2314.22 1885.01,2431.02 1578.78,2431.02C1514.46,2431.02 1451.34,2425.87 1389.8,2415.96L1389.8,1994.16Z" style="fill:rgb(250,150,37);stroke:rgb(44,46,49);stroke-width:20.83px;"/>
        <path d="M1280.18,2392.89C772.688,2260.48 397.677,1798.65 397.677,1249.92C397.677,943.686 514.474,664.517 705.914,454.567L998.647,747.3C881.807,882.015 811.063,1057.77 811.063,1249.92C811.063,1567.75 1004.62,1840.73 1280.18,1957.31L1280.18,2392.89Z" style="fill:white;stroke:rgb(44,46,49);stroke-width:20.83px;"/>
        <path d="M2158.91,1752.54C2275.75,1617.82 2346.5,1442.07 2346.5,1249.92C2346.5,1057.77 2275.75,882.015 2158.91,747.3L2451.64,454.567C2643.09,664.517 2759.88,943.686 2759.88,1249.92C2759.88,1556.15 2643.09,1835.32 2451.64,2045.27L2158.91,1752.54Z" style="fill:white;stroke:rgb(72,72,72);stroke-width:20.83px;"/>
        <path d="M1389.8,505.676C1272.08,535.52 1165.16,592.593 1076.16,669.787L783.427,377.054C993.377,185.614 1272.55,68.817 1578.78,68.817C1885.01,68.817 2164.18,185.614 2374.13,377.054L2081.4,669.787C1992.39,592.593 1885.48,535.52 1767.76,505.676L1768.11,1041.73L1389.8,1041.73L1389.8,505.676Z" style="fill:rgb(250,150,37);stroke:rgb(44,46,49);stroke-width:20.83px;"/>
    </g>
</svg>
